<svg width="25" height="25" viewBox="0 0 25 25" fill="none" xmlns="http://www.w3.org/2000/svg">
    <path
        d="M23.9055 18.4648C23.1564 17.8365 18.7626 15.0543 18.0324 15.182C17.6895 15.2428 17.4272 15.5351 16.7252 16.3725C16.4006 16.7847 16.044 17.1708 15.6589 17.5271C14.9533 17.3567 14.2703 17.1035 13.6241 16.7728C11.0897 15.539 9.04232 13.4909 7.80921 10.9563C7.47856 10.31 7.22537 9.62701 7.05492 8.92139C7.41126 8.53628 7.79731 8.17975 8.2095 7.85511C9.04607 7.15311 9.33921 6.89254 9.40007 6.54796C9.52778 5.81596 6.74292 1.42396 6.11721 0.674821C5.85492 0.364536 5.61664 0.15625 5.3115 0.15625C4.42692 0.15625 0.425781 5.10368 0.425781 5.74482C0.425781 5.79711 0.511495 10.9477 7.01635 17.5657C13.6344 24.0705 18.7849 24.1563 18.8372 24.1563C19.4784 24.1563 24.4258 20.1551 24.4258 19.2705C24.4258 18.9654 24.2175 18.7271 23.9055 18.4648ZM18.4258 11.2991H20.1401C20.138 9.48111 19.4149 7.73815 18.1294 6.45263C16.8439 5.16711 15.1009 4.44401 13.2829 4.44196V6.15625C14.6465 6.15761 15.9538 6.69988 16.918 7.66406C17.8821 8.62824 18.4244 9.93555 18.4258 11.2991Z"
        fill="white" />
    <path
        d="M22.7098 11.2991H24.4241C24.4207 8.34488 23.2456 5.51263 21.1567 3.42368C19.0677 1.33472 16.2355 0.159653 13.2812 0.15625V1.87054C15.781 1.87348 18.1774 2.8678 19.945 4.63536C21.7126 6.40292 22.7069 8.7994 22.7098 11.2991Z"
        fill="white" />
</svg>