<svg width="27" height="27" viewBox="0 0 27 27" fill="none" xmlns="http://www.w3.org/2000/svg">
    <path d="M13.4062 26.3047C15.1137 26.3068 16.8048 25.9715 18.3823 25.318C19.9598 24.6646 21.3927 23.7059 22.5985 22.497C23.8074 21.2911 24.7661 19.8583 25.4196 18.2808C26.073 16.7033 26.4083 15.0122 26.4062 13.3047C26.4083 11.5972 26.073 9.90612 25.4196 8.32861C24.7661 6.7511 23.8074 5.31826 22.5985 4.11239C21.3927 2.9035 19.9598 1.94479 18.3823 1.29134C16.8048 0.637895 15.1137 0.302592 13.4062 0.304697C11.6988 0.302592 10.0077 0.637895 8.43017 1.29134C6.85266 1.94479 5.41982 2.9035 4.21396 4.11239C3.00506 5.31826 2.04635 6.7511 1.3929 8.32861C0.739457 9.90612 0.404154 11.5972 0.40626 13.3047C0.404154 15.0122 0.739457 16.7033 1.3929 18.2808C2.04635 19.8583 3.00506 21.2911 4.21396 22.497C5.41982 23.7059 6.85266 24.6646 8.43017 25.318C10.0077 25.9715 11.6988 26.3068 13.4062 26.3047Z" fill="#BE71CB"/>
    <path d="M13.4062 26.3047C15.1137 26.3068 16.8048 25.9715 18.3823 25.318C19.9598 24.6646 21.3927 23.7059 22.5985 22.497C23.8074 21.2911 24.7661 19.8583 25.4196 18.2808C26.073 16.7033 26.4083 15.0122 26.4062 13.3047C26.4083 11.5972 26.073 9.90612 25.4196 8.32861C24.7661 6.7511 23.8074 5.31826 22.5985 4.11239C21.3927 2.9035 19.9598 1.94479 18.3823 1.29134C16.8048 0.637895 15.1137 0.302592 13.4062 0.304697C11.6988 0.302592 10.0077 0.637895 8.43017 1.29134C6.85266 1.94479 5.41982 2.9035 4.21396 4.11239C3.00506 5.31826 2.04635 6.7511 1.3929 8.32861C0.739457 9.90612 0.404154 11.5972 0.40626 13.3047C0.404154 15.0122 0.739457 16.7033 1.3929 18.2808C2.04635 19.8583 3.00506 21.2911 4.21396 22.497C5.41982 23.7059 6.85266 24.6646 8.43017 25.318C10.0077 25.9715 11.6988 26.3068 13.4062 26.3047Z" fill="#C20D28"/>
    <path d="M8.20703 13.3031L12.107 17.2031L18.607 10.7031" stroke="white" stroke-width="2" stroke-linecap="round" stroke-linejoin="round"/>
    </svg>
    