<svg width="25" height="18" viewBox="0 0 25 18" fill="none" xmlns="http://www.w3.org/2000/svg">
<path d="M23.8316 1.92442L16.5529 9.15625L23.8316 16.3881C23.9631 16.1131 24.043 15.809 24.043 15.4844V2.82812C24.043 2.50342 23.9631 2.19944 23.8316 1.92442ZM21.9336 0.71875H2.15234C1.82764 0.71875 1.52366 0.798578 1.24864 0.930156L10.5516 10.1862C11.3742 11.0088 12.7118 11.0088 13.5343 10.1862L22.8373 0.930156C22.5623 0.798578 22.2583 0.71875 21.9336 0.71875ZM0.254375 1.92442C0.122797 2.19944 0.0429688 2.50342 0.0429688 2.82812V15.4844C0.0429688 15.8091 0.122797 16.1131 0.254375 16.3881L7.53308 9.15625L0.254375 1.92442Z" fill="white"/>
<path d="M15.56 10.1484L14.53 11.1784C13.1594 12.549 10.9292 12.549 9.55864 11.1784L8.5287 10.1484L1.25 17.3803C1.52502 17.5118 1.829 17.5917 2.1537 17.5917H21.935C22.2597 17.5917 22.5636 17.5118 22.8387 17.3803L15.56 10.1484Z" fill="white"/>
</svg>
