<svg width="51" height="51" viewBox="0 0 51 51" fill="none" xmlns="http://www.w3.org/2000/svg">
<circle cx="25.4844" cy="25.9297" r="25" fill="white"/>
<path d="M19.9377 16.4554C20.0461 16.3992 20.1278 16.3023 20.1648 16.1859C20.2018 16.0694 20.191 15.9431 20.1348 15.8347C20.0786 15.7262 19.9816 15.6445 19.8652 15.6075C19.7488 15.5706 19.6225 15.5814 19.514 15.6375C18.0506 16.3956 16.7854 17.4861 15.8198 18.8217C14.8543 20.1573 14.2153 21.7006 13.9543 23.3279C13.9363 23.4479 13.9664 23.5701 14.038 23.668C14.1097 23.766 14.217 23.8317 14.3368 23.8509C14.4566 23.8701 14.5792 23.8412 14.6778 23.7706C14.7765 23.7 14.8433 23.5933 14.8637 23.4737C15.1019 21.9887 15.685 20.5801 16.5662 19.3613C17.4474 18.1424 18.6021 17.1472 19.9377 16.4554Z" fill="#C20D28"/>
<path d="M20.8076 18.1394C20.8626 18.1124 20.9117 18.0746 20.9519 18.0284C20.9922 17.9821 21.0227 17.9283 21.0419 17.8701C21.0611 17.8118 21.0684 17.7504 21.0635 17.6893C21.0586 17.6282 21.0415 17.5687 21.0133 17.5143C20.9851 17.4598 20.9463 17.4116 20.8993 17.3723C20.8522 17.3331 20.7977 17.3037 20.7391 17.2857C20.6805 17.2678 20.6189 17.2618 20.5579 17.268C20.4969 17.2742 20.4378 17.2925 20.384 17.3218C19.1835 17.9437 18.1455 18.8383 17.3534 19.934C16.5613 21.0296 16.0371 22.2957 15.823 23.6306C15.8127 23.6906 15.8145 23.7521 15.8281 23.8114C15.8418 23.8707 15.867 23.9267 15.9025 23.9762C15.9379 24.0257 15.9828 24.0677 16.0346 24.0997C16.0863 24.1318 16.1439 24.1532 16.204 24.1629C16.2641 24.1725 16.3255 24.1701 16.3847 24.1559C16.4439 24.1416 16.4997 24.1158 16.5488 24.0799C16.5979 24.0439 16.6394 23.9986 16.6709 23.9465C16.7025 23.8945 16.7233 23.8366 16.7324 23.7764C16.9237 22.5837 17.3921 21.4525 18.0998 20.4736C18.8076 19.4947 19.735 18.6953 20.8076 18.1397V18.1394ZM31.0876 18.1394C31.0326 18.1124 30.9836 18.0746 30.9433 18.0284C30.9031 17.9821 30.8725 17.9283 30.8534 17.8701C30.8342 17.8118 30.8269 17.7504 30.8318 17.6893C30.8367 17.6282 30.8537 17.5687 30.8819 17.5143C30.9101 17.4598 30.9489 17.4116 30.996 17.3723C31.0431 17.3331 31.0976 17.3037 31.1562 17.2857C31.2148 17.2678 31.2764 17.2618 31.3374 17.268C31.3984 17.2742 31.4575 17.2925 31.5113 17.3218C32.7118 17.9437 33.7497 18.8384 34.5418 19.934C35.3339 21.0296 35.8581 22.2957 36.0723 23.6306C36.0825 23.6906 36.0808 23.7521 36.0671 23.8114C36.0535 23.8707 36.0282 23.9267 35.9928 23.9762C35.9574 24.0257 35.9125 24.0677 35.8607 24.0997C35.809 24.1318 35.7514 24.1532 35.6913 24.1629C35.6312 24.1725 35.5697 24.1701 35.5106 24.1559C35.4514 24.1416 35.3956 24.1158 35.3465 24.0799C35.2974 24.0439 35.2558 23.9986 35.2243 23.9465C35.1928 23.8945 35.1719 23.8366 35.1629 23.7764C34.9715 22.5837 34.5032 21.4525 33.7954 20.4736C33.0877 19.4947 32.1603 18.6953 31.0876 18.1397V18.1394Z" fill="#C20D28"/>
<path d="M31.958 16.4554C31.9043 16.4276 31.8566 16.3895 31.8177 16.3432C31.7787 16.297 31.7492 16.2435 31.7309 16.1859C31.7126 16.1282 31.7058 16.0675 31.711 16.0073C31.7161 15.947 31.7331 15.8884 31.7609 15.8346C31.7887 15.7809 31.8269 15.7332 31.8731 15.6943C31.9194 15.6553 31.9728 15.6258 32.0305 15.6075C32.0881 15.5892 32.1488 15.5825 32.2091 15.5876C32.2693 15.5928 32.328 15.6097 32.3817 15.6375C33.845 16.3956 35.1102 17.4862 36.0757 18.8218C37.0412 20.1573 37.6801 21.7007 37.9411 23.3279C37.9513 23.3879 37.9496 23.4493 37.9359 23.5086C37.9223 23.568 37.897 23.624 37.8616 23.6735C37.8262 23.723 37.7813 23.765 37.7295 23.797C37.6778 23.829 37.6202 23.8505 37.5601 23.8601C37.5 23.8698 37.4385 23.8674 37.3794 23.8531C37.3202 23.8389 37.2644 23.8131 37.2153 23.7771C37.1661 23.7412 37.1246 23.6959 37.0931 23.6438C37.0616 23.5917 37.0407 23.5339 37.0317 23.4737C36.7936 21.9887 36.2105 20.5802 35.3295 19.3614C34.4484 18.1425 33.2934 17.1472 31.958 16.4554ZM18.755 26.2328C18.755 22.261 21.9749 19.0408 25.947 19.0408C29.9192 19.0408 33.1391 22.2607 33.1391 26.2328V30.7388H33.2134C33.4218 30.7347 33.629 30.7722 33.8228 30.8491C34.0165 30.926 34.193 31.0408 34.3419 31.1867C34.4907 31.3327 34.609 31.5069 34.6897 31.6991C34.7704 31.8913 34.812 32.0976 34.812 32.3061C34.812 32.5146 34.7704 32.721 34.6897 32.9132C34.609 33.1054 34.4907 33.2795 34.3419 33.4255C34.193 33.5714 34.0165 33.6862 33.8228 33.7631C33.629 33.84 33.4218 33.8775 33.2134 33.8734H18.6807C18.4722 33.8775 18.2651 33.84 18.0713 33.7631C17.8775 33.6862 17.7011 33.5714 17.5522 33.4255C17.4033 33.2795 17.2851 33.1054 17.2043 32.9132C17.1236 32.721 17.082 32.5146 17.082 32.3061C17.082 32.0976 17.1236 31.8913 17.2043 31.6991C17.2851 31.5069 17.4033 31.3327 17.5522 31.1867C17.7011 31.0408 17.8775 30.926 18.0713 30.8491C18.2651 30.7722 18.4722 30.7347 18.6807 30.7388H18.755V26.2328ZM29.2597 34.6158C29.2596 35.1605 29.1251 35.6968 28.8683 36.1772C28.6114 36.6576 28.2401 37.0673 27.7871 37.37C27.3342 37.6726 26.8136 37.8589 26.2715 37.9123C25.7293 37.9658 25.1824 37.8847 24.6791 37.6764C24.0737 37.4256 23.5563 37.001 23.1923 36.4561C22.8284 35.9113 22.6342 35.2707 22.6344 34.6155L29.2597 34.6158ZM25.2249 17.312C25.1028 17.312 24.9857 17.3605 24.8993 17.4469C24.8129 17.5332 24.7644 17.6504 24.7644 17.7725C24.7644 17.8946 24.8129 18.0118 24.8993 18.0981C24.9857 18.1845 25.1028 18.233 25.2249 18.233H26.6694C26.7916 18.233 26.9087 18.1845 26.9951 18.0981C27.0814 18.0118 27.1299 17.8946 27.1299 17.7725C27.1299 17.6504 27.0814 17.5332 26.9951 17.4469C26.9087 17.3605 26.7916 17.312 26.6694 17.312H25.2249Z" fill="#C20D28"/>
</svg>
