<svg width="51" height="51" viewBox="0 0 51 51" fill="none" xmlns="http://www.w3.org/2000/svg">
<circle cx="25.1562" cy="25.7578" r="25" fill="white"/>
<path d="M35.2343 27.4668C33.9902 27.0166 32.6092 27.1205 31.445 27.7522C31.4299 27.7597 26.887 29.8128 26.887 29.8128C26.5642 30.0545 26.1899 30.1822 25.8044 30.1822H22.9461C22.5911 30.1822 22.3032 29.8947 22.3032 29.5401C22.3032 29.1855 22.5911 28.898 22.9461 28.898H25.8044C26.6979 28.898 26.7174 27.0598 25.8423 26.9869L21.8585 26.9412C21.1555 26.9334 20.4519 26.4815 19.7109 26.4646C18.9567 26.4473 18.2432 26.6397 17.6091 27.0509C16.7262 27.6236 16.1234 28.5337 15.7194 29.4879L17.8748 34.9308H24.0723C24.6326 34.9306 25.1831 34.7842 25.6696 34.5063L35.2877 29.0041C35.5801 28.7561 35.806 28.4666 35.7067 28.0219C35.6509 27.7719 35.4714 27.5528 35.2343 27.4668ZM11.7305 30.1548L14.6678 37.5726L17.0256 36.278L14.0882 28.8602L11.7305 30.1548ZM29.4309 12.2812C26.2772 12.2812 23.7207 14.8724 23.7207 18.0687C23.7207 21.2649 26.2773 23.8561 29.4309 23.8561C32.5844 23.8561 35.141 21.2649 35.141 18.0687C35.141 14.8724 32.5845 12.2812 29.4309 12.2812ZM30.0797 20.9575V21.9169H28.7584V21.0356C28.2479 20.9597 27.7943 20.7566 27.4024 20.4486L27.8763 19.1197C28.2605 19.4216 28.8096 19.6975 29.2817 19.6975C29.6438 19.6975 29.8778 19.5313 29.8778 19.2741C29.8778 19.1069 29.824 18.9066 29.1821 18.6449C28.3786 18.3279 27.5561 17.8628 27.5561 16.8211C27.5561 16.0346 28.0368 15.4028 28.8169 15.1537V14.2203H30.13V15.0709C30.5296 15.1333 30.9569 15.3281 31.3085 15.5549L30.816 16.8629C30.462 16.6268 29.9599 16.3976 29.5571 16.3976C29.1167 16.3976 29.0692 16.6233 29.0692 16.7203C29.0692 16.8722 29.1259 17.0033 29.8591 17.3084C30.5761 17.6025 31.399 18.0851 31.399 19.2152C31.3991 20.0227 30.8842 20.698 30.0797 20.9575Z" fill="#C20D28"/>
</svg>
