<svg width="51" height="51" viewBox="0 0 51 51" fill="none" xmlns="http://www.w3.org/2000/svg">
<circle cx="25.4609" cy="25.7578" r="25" fill="white"/>
<path d="M29.7638 28.6699C29.2424 28.4419 27.7984 28.0542 27.6248 27.3976C27.3526 26.3592 28.387 25.5683 28.8472 24.7507C29.3315 23.8888 29.7358 22.7224 29.8144 21.7475C30.0979 18.2483 27.9523 16.2008 24.876 16.5552C22.6398 16.8126 21.304 18.4798 21.1595 20.627C21.0128 22.815 21.8246 24.4307 22.6867 25.6158C23.064 26.1339 23.46 26.4672 23.3998 27.0918C23.3288 27.8304 22.5392 28.036 21.9744 28.2627C21.3048 28.532 20.5843 28.94 20.2438 29.1286C19.1382 29.7392 17.9312 30.4675 17.5547 31.4435C19.3008 33.9382 22.1931 35.5742 25.4624 35.5742C28.7424 35.5742 31.6438 33.9278 33.3872 31.419C32.8646 30.0856 31.0608 29.2398 29.7638 28.6699Z" fill="#C20D28"/>
<path d="M25.4609 13.9297C18.8444 13.9297 13.4609 19.3129 13.4609 25.9297C13.4609 32.5465 18.8444 37.9297 25.4609 37.9297C32.078 37.9297 37.4609 32.5462 37.4609 25.9297C37.4609 19.3129 32.078 13.9297 25.4609 13.9297ZM25.4609 36.518C19.6135 36.518 14.8727 31.7777 14.8727 25.9297C14.8727 20.0817 19.6135 15.3412 25.4609 15.3412C31.3089 15.3412 36.0492 20.0814 36.0492 25.9297C36.0492 31.7777 31.3089 36.518 25.4609 36.518Z" fill="#C20D28"/>
</svg>
