<svg width="51" height="51" viewBox="0 0 51 51" fill="none" xmlns="http://www.w3.org/2000/svg">
<circle cx="25.6523" cy="25.9297" r="25" fill="white"/>
<path d="M27.9763 22.959C28.8669 22.9591 29.721 22.6057 30.3512 21.9764C30.9813 21.3471 31.3359 20.4934 31.337 19.6029C31.1639 15.1551 24.7935 15.1513 24.6194 19.6029C24.6202 20.4929 24.9742 21.3462 25.6036 21.9754C26.233 22.6046 27.0864 22.9584 27.9763 22.959ZM15.4908 32.5769H18.6644C18.7856 31.8775 19.1499 31.2434 19.6929 30.7863C20.236 30.3293 20.923 30.0786 21.6329 30.0787H23.6697L21.624 23.4751C21.6213 23.4637 21.6148 23.4535 21.6057 23.4461C21.5965 23.4387 21.5852 23.4346 21.5734 23.4343L12.7141 23.2881C12.7046 23.2879 12.6952 23.29 12.6867 23.2941C12.6781 23.2983 12.6707 23.3044 12.6649 23.3119C12.6591 23.3194 12.6552 23.3282 12.6534 23.3375C12.6516 23.3469 12.6521 23.3565 12.6547 23.3656C12.7178 23.4111 15.3655 32.5932 15.4908 32.5769ZM18.4727 23.9138C20.1623 23.7903 20.8182 25.5756 20.0667 26.9412C19.0446 28.9883 17.0783 27.4602 16.9066 25.8133C16.8627 25.3538 17.003 24.8956 17.2967 24.5395C17.5903 24.1834 18.0133 23.9583 18.4727 23.9138ZM17.3768 28.1147C17.4607 28.0634 17.5589 28.0406 17.6568 28.0498C17.7547 28.059 17.847 28.0997 17.9199 28.1658C18.0507 28.2956 18.2073 28.3965 18.3797 28.4617C18.552 28.527 18.7362 28.5552 18.9202 28.5445C19.1022 28.5207 19.2771 28.4583 19.433 28.3614C19.5889 28.2646 19.7224 28.1355 19.8244 27.9829C19.8829 27.9031 19.966 27.8446 20.0609 27.8166C20.1558 27.7885 20.2573 27.7923 20.3499 27.8274C20.879 28.0061 22.5222 29.0417 21.7976 29.6586C21.7491 29.6935 21.6941 29.7186 21.6359 29.7322C21.5777 29.7458 21.5173 29.7479 21.4583 29.7381C21.3993 29.7284 21.3428 29.707 21.2921 29.6754C21.2413 29.6437 21.1973 29.6024 21.1626 29.5537C20.9382 29.2456 20.6481 28.9912 20.3132 28.8091C19.9705 29.1755 19.506 29.4044 19.0068 29.4531C18.5075 29.5018 18.0076 29.3669 17.6005 29.0737C17.1515 29.4373 16.847 29.9492 16.7418 30.5173C17.0684 30.7892 17.4634 30.9661 17.8837 31.0289C18.0035 31.0459 18.1116 31.1098 18.1844 31.2064C18.2571 31.3031 18.2885 31.4247 18.2717 31.5446C18.0619 32.4312 16.5807 31.5664 16.162 31.2252C15.9917 31.086 15.7545 30.9156 15.7967 30.6635C15.8465 30.1459 16.0149 29.6467 16.289 29.2047C16.563 28.7627 16.9352 28.3894 17.3768 28.1147ZM19.0757 34.6774H15.3674C15.2462 34.6774 15.13 34.7255 15.0444 34.8112C14.9587 34.8968 14.9106 35.013 14.9106 35.1341C14.9106 35.2553 14.9587 35.3715 15.0444 35.4571C15.13 35.5428 15.2462 35.5909 15.3674 35.5909H19.9572C19.6004 35.354 19.2999 35.0422 19.0757 34.6774Z" fill="#C20D28"/>
<path d="M38.197 34.6826C37.5597 34.6836 35.9606 34.6826 35.3516 34.6826C35.4091 32.1682 35.0983 29.6588 34.4292 27.2343C33.3486 23.7311 28.4265 23.3333 26.78 26.6225L24.5515 30.9975H21.6332C21.0767 30.9975 20.543 31.2185 20.1495 31.6121C19.7559 32.0056 19.5349 32.5393 19.5349 33.0958C19.5349 33.6523 19.7559 34.1861 20.1495 34.5796C20.543 34.9731 21.0767 35.1942 21.6332 35.1942H25.4464C26.118 35.196 26.7772 35.0134 27.3522 34.6663C27.9272 34.3193 28.3959 33.8211 28.7073 33.226L29.7146 31.3131C29.7432 31.2586 29.7825 31.2105 29.8302 31.1716C29.8779 31.1326 29.9329 31.1037 29.9921 31.0866C30.0512 31.0694 30.1131 31.0644 30.1742 31.0717C30.2353 31.079 30.2943 31.0986 30.3477 31.1293C30.4505 31.1883 30.5264 31.2849 30.5593 31.3988C30.5923 31.5126 30.5799 31.6349 30.5246 31.7397L29.5154 33.6554C29.0764 34.4843 28.3967 35.1608 27.5659 35.5962C28.7068 35.5971 38.197 35.5962 38.197 35.5962C38.3181 35.5962 38.4343 35.548 38.52 35.4624C38.6056 35.3767 38.6537 35.2605 38.6537 35.1394C38.6537 35.0183 38.6056 34.9021 38.52 34.8164C38.4343 34.7308 38.3181 34.6826 38.197 34.6826ZM18.7516 27.0245C19.2051 26.9706 19.5207 25.975 19.4641 25.572C19.4411 25.3553 19.3336 25.1563 19.1649 25.0183C18.9962 24.8803 18.7799 24.8144 18.5628 24.8349C18.3458 24.8553 18.1456 24.9605 18.0057 25.1276C17.8658 25.2948 17.7974 25.5103 17.8153 25.7275C17.8701 26.2939 18.4048 27.0245 18.7516 27.0245Z" fill="#C20D28"/>
</svg>
