<svg width="57" height="57" viewBox="0 0 57 57" fill="none" xmlns="http://www.w3.org/2000/svg">
<circle cx="28.8438" cy="28.3594" r="28" fill="#C20D28"/>
<path d="M26.1702 35.1433L23.8988 36.2501L22.3199 30.4192L24.5406 29.3089C25.3761 28.8909 26.2974 28.6733 27.2316 28.6732H32.7265C33.4537 28.6732 34.0857 29.2813 34.0857 30.0325C34.0857 30.7197 33.5301 31.3295 32.8412 31.3855L31.0054 31.5376C29.8337 31.6362 29.9795 33.4062 31.1521 33.3102L32.9869 33.1582C34.4084 33.0408 35.557 31.9598 35.8095 30.5961L39.2703 29.6467C39.5692 29.5618 39.8891 29.5926 40.1663 29.7329C40.4435 29.8733 40.6577 30.1129 40.7661 30.4041C40.8745 30.6953 40.8692 31.0167 40.7514 31.3041C40.6335 31.5916 40.4116 31.8241 40.13 31.9554L32.7531 35.9496C31.9408 36.3897 30.989 36.4962 30.0995 36.2465L26.1702 35.1433ZM22.2408 38.253L16.8438 41.1084V31.774L19.9357 30.3872C19.9943 30.3609 20.0578 30.3477 20.122 30.3483C20.1862 30.349 20.2495 30.3635 20.3076 30.391C20.3656 30.4185 20.417 30.4582 20.4582 30.5074C20.4995 30.5566 20.5295 30.6142 20.5464 30.6761L22.4613 37.7436C22.4878 37.8409 22.4804 37.9444 22.4403 38.0369C22.4003 38.1295 22.3299 38.2057 22.2408 38.253ZM32.9496 15.7259L32.2011 16.7465C32.172 16.7859 32.1323 16.8161 32.0866 16.8338C32.041 16.8514 31.9913 16.8557 31.9433 16.8461C31.3644 16.7358 30.7699 16.7358 30.1911 16.8461C30.1432 16.8556 30.0936 16.8513 30.0481 16.8337C30.0026 16.816 29.9631 16.7858 29.9342 16.7465L29.1856 15.7259C29.1467 15.673 29.0896 15.6363 29.0253 15.6228C28.961 15.6094 28.894 15.6201 28.8371 15.6531L27.0752 16.6701C27.0183 16.703 26.9755 16.7557 26.955 16.8182C26.9345 16.8807 26.9377 16.9485 26.964 17.0088L27.4752 18.1707C27.4949 18.2155 27.5014 18.265 27.4938 18.3134C27.4863 18.3618 27.465 18.4069 27.4325 18.4436C27.0487 18.8896 26.7504 19.4025 26.5524 19.9567C26.5368 20.0029 26.5083 20.0437 26.4704 20.0744C26.4325 20.1051 26.3866 20.1243 26.3382 20.13L25.082 20.2678C25.0167 20.275 24.9563 20.3062 24.9124 20.3552C24.8686 20.4043 24.8445 20.4678 24.8447 20.5336V22.5685C24.8447 22.6341 24.8689 22.6975 24.9127 22.7463C24.9565 22.7952 25.0168 22.8262 25.082 22.8334L26.3382 22.9712C26.3867 22.9768 26.4326 22.996 26.4705 23.0267C26.5085 23.0575 26.5369 23.0983 26.5524 23.1446C26.7507 23.7046 27.0529 24.2158 27.4325 24.6576C27.465 24.6943 27.4863 24.7395 27.4938 24.7879C27.5014 24.8362 27.4949 24.8858 27.4752 24.9306L26.964 26.0925C26.9375 26.1527 26.9342 26.2206 26.9547 26.2831C26.9752 26.3457 27.0181 26.3984 27.0752 26.4312L28.8371 27.4491C28.894 27.482 28.961 27.4927 29.0253 27.4793C29.0896 27.4658 29.1467 27.4291 29.1856 27.3762L29.9342 26.3556C29.9631 26.3163 30.0026 26.2861 30.0481 26.2685C30.0936 26.2509 30.1432 26.2465 30.1911 26.2561C30.7699 26.3668 31.3645 26.3668 31.9433 26.2561C31.9911 26.2465 32.0407 26.2509 32.0862 26.2685C32.1317 26.2861 32.1712 26.3163 32.2002 26.3556L32.9487 27.3762C32.9876 27.4291 33.0447 27.4658 33.109 27.4793C33.1733 27.4927 33.2403 27.482 33.2972 27.4491L35.0592 26.4321C35.1161 26.3991 35.1589 26.3464 35.1794 26.2839C35.1999 26.2214 35.1966 26.1536 35.1703 26.0934L34.6591 24.9315C34.6394 24.8866 34.6329 24.8371 34.6405 24.7887C34.6481 24.7404 34.6693 24.6952 34.7018 24.6585C35.0856 24.2125 35.384 23.6996 35.5819 23.1455C35.5976 23.0993 35.626 23.0585 35.6639 23.0278C35.7019 22.9971 35.7477 22.9778 35.7962 22.9721L37.0523 22.8343C37.1178 22.8269 37.1784 22.7956 37.2223 22.7464C37.2662 22.6972 37.2905 22.6336 37.2906 22.5676V20.5327C37.2905 20.4671 37.2663 20.4038 37.2225 20.3549C37.1787 20.306 37.1184 20.275 37.0532 20.2678L35.7971 20.1309C35.7486 20.1253 35.7027 20.1061 35.6647 20.0754C35.6268 20.0447 35.5984 20.0038 35.5828 19.9575C35.3854 19.4032 35.087 18.8902 34.7027 18.4445C34.6702 18.4078 34.649 18.3626 34.6414 18.3143C34.6338 18.2659 34.6403 18.2164 34.66 18.1716L35.1712 17.0097C35.1977 16.9494 35.2011 16.8815 35.1805 16.819C35.16 16.7565 35.1171 16.7038 35.0601 16.6709L33.2981 15.6531C33.2412 15.6201 33.1742 15.6094 33.1099 15.6228C33.0456 15.6363 32.9885 15.673 32.9496 15.7259ZM32.9923 22.6619C32.8474 22.9167 32.6536 23.1403 32.4219 23.3199C32.1903 23.4994 31.9254 23.6314 31.6426 23.7082C31.3597 23.785 31.0644 23.8051 30.7738 23.7673C30.4831 23.7296 30.2028 23.6347 29.949 23.4881C29.6951 23.3415 29.4728 23.1462 29.2948 22.9134C29.1167 22.6806 28.9865 22.4148 28.9116 22.1315C28.8367 21.8481 28.8185 21.5527 28.8583 21.2623C28.898 20.9719 28.9947 20.6922 29.1429 20.4394C29.4398 19.9331 29.9248 19.5647 30.4922 19.4147C31.0596 19.2647 31.6633 19.3452 32.1715 19.6387C32.6798 19.9321 33.0513 20.4147 33.2051 20.9811C33.3589 21.5475 33.2824 22.1517 32.9923 22.6619Z" fill="white"/>
</svg>
