<svg width="57" height="57" viewBox="0 0 57 57" fill="none" xmlns="http://www.w3.org/2000/svg">
<circle cx="28.9609" cy="28.3594" r="28" fill="#AD0D26"/>
<path d="M40.3889 18.0703H19.8175C19.5019 18.0703 19.2461 18.3261 19.2461 18.6417V19.7846C19.2461 20.1002 19.5019 20.356 19.8175 20.356H40.3889C40.7045 20.356 40.9603 20.1002 40.9603 19.7846V18.6417C40.9603 18.3261 40.7045 18.0703 40.3889 18.0703Z" fill="white"/>
<path d="M30.1038 16.3594C29.4977 16.36 28.9167 16.601 28.4882 17.0295C28.0597 17.458 27.8187 18.0391 27.8181 18.6451C27.8181 18.7966 27.8783 18.942 27.9854 19.0491C28.0926 19.1563 28.2379 19.2165 28.3895 19.2165H31.818C31.9696 19.2165 32.1149 19.1563 32.2221 19.0491C32.3293 18.942 32.3895 18.7966 32.3895 18.6451C32.3889 18.0391 32.1479 17.458 31.7193 17.0295C31.2908 16.601 30.7098 16.36 30.1038 16.3594ZM20.3895 20.9308V27.9137C20.9207 27.6438 21.508 27.5028 22.1038 27.5022C23.2057 27.5381 24.2485 28.0093 25.0037 28.8126C25.7588 29.6159 26.1647 30.6859 26.1323 31.7879C26.1326 32.1737 26.0827 32.5579 25.9838 32.9308H38.6752C38.978 32.9299 39.2682 32.8092 39.4823 32.5951C39.6964 32.3809 39.8171 32.0908 39.818 31.7879V20.9308H20.3895ZM27.8181 30.6451C27.8181 30.7966 27.7579 30.942 27.6507 31.0491C27.5435 31.1563 27.3982 31.2165 27.2466 31.2165C27.0951 31.2165 26.9497 31.1563 26.8426 31.0491C26.7354 30.942 26.6752 30.7966 26.6752 30.6451V28.3594C26.6752 28.2078 26.7354 28.0625 26.8426 27.9553C26.9497 27.8481 27.0951 27.7879 27.2466 27.7879C27.3982 27.7879 27.5435 27.8481 27.6507 27.9553C27.7579 28.0625 27.8181 28.2078 27.8181 28.3594V30.6451ZM30.1038 30.6451C30.1038 30.7966 30.0436 30.942 29.9364 31.0491C29.8292 31.1563 29.6839 31.2165 29.5323 31.2165C29.3808 31.2165 29.2354 31.1563 29.1283 31.0491C29.0211 30.942 28.9609 30.7966 28.9609 30.6451V28.9308C28.9609 28.7792 29.0211 28.6339 29.1283 28.5267C29.2354 28.4196 29.3808 28.3594 29.5323 28.3594C29.6839 28.3594 29.8292 28.4196 29.9364 28.5267C30.0436 28.6339 30.1038 28.7792 30.1038 28.9308V30.6451ZM32.3895 30.6451C32.3895 30.7966 32.3293 30.942 32.2221 31.0491C32.1149 31.1563 31.9696 31.2165 31.818 31.2165C31.6665 31.2165 31.5211 31.1563 31.414 31.0491C31.3068 30.942 31.2466 30.7966 31.2466 30.6451V27.7879C31.2466 27.6364 31.3068 27.491 31.414 27.3839C31.5211 27.2767 31.6665 27.2165 31.818 27.2165C31.9696 27.2165 32.1149 27.2767 32.2221 27.3839C32.3293 27.491 32.3895 27.6364 32.3895 27.7879V30.6451ZM34.6752 30.6451C34.6752 30.7966 34.615 30.942 34.5078 31.0491C34.4006 31.1563 34.2553 31.2165 34.1038 31.2165C33.9522 31.2165 33.8069 31.1563 33.6997 31.0491C33.5925 30.942 33.5323 30.7966 33.5323 30.6451V26.6451C33.5323 26.4935 33.5925 26.3482 33.6997 26.241C33.8069 26.1339 33.9522 26.0737 34.1038 26.0737C34.2553 26.0737 34.4006 26.1339 34.5078 26.241C34.615 26.3482 34.6752 26.4935 34.6752 26.6451V30.6451ZM34.6752 24.9308C34.6752 25.0824 34.615 25.2277 34.5078 25.3349C34.4006 25.442 34.2553 25.5022 34.1038 25.5022C33.9522 25.5022 33.8069 25.442 33.6997 25.3349C33.5925 25.2277 33.5323 25.0824 33.5323 24.9308V24.5937L31.0809 27.0508C30.9901 27.1395 30.8727 27.1958 30.7468 27.2113C30.6209 27.2268 30.4933 27.2005 30.3838 27.1365L27.8638 25.6279L25.3152 27.6622C25.2156 27.7445 25.0901 27.789 24.9609 27.7879C24.8751 27.7876 24.7904 27.7679 24.7133 27.7303C24.6361 27.6927 24.5684 27.6382 24.5152 27.5708C24.4676 27.5127 24.4322 27.4457 24.411 27.3736C24.3898 27.3016 24.3832 27.2261 24.3918 27.1515C24.4003 27.0769 24.4237 27.0047 24.4606 26.9394C24.4975 26.874 24.5472 26.8166 24.6066 26.7708L27.4638 24.4851C27.554 24.4128 27.6642 24.3698 27.7795 24.3616C27.8948 24.3534 28.0099 24.3806 28.1095 24.4394L30.5838 25.9251L32.7266 23.7879H32.1038C31.9522 23.7879 31.8069 23.7277 31.6997 23.6206C31.5925 23.5134 31.5323 23.3681 31.5323 23.2165C31.5323 23.065 31.5925 22.9196 31.6997 22.8125C31.8069 22.7053 31.9522 22.6451 32.1038 22.6451H34.1038C34.1784 22.6459 34.2522 22.6615 34.3209 22.6908C34.3908 22.7183 34.4542 22.7598 34.5073 22.8129C34.5604 22.866 34.602 22.9295 34.6295 22.9994C34.6588 23.068 34.6744 23.1418 34.6752 23.2165V24.9308ZM25.7421 36.1497C25.5077 35.9152 25.2508 35.7042 24.9752 35.5199C24.7034 35.3427 24.3788 35.2646 24.0561 35.2989C23.7334 35.3331 23.4323 35.4776 23.2038 35.7079C22.9095 35.9949 22.5148 36.1556 22.1038 36.1556C21.6928 36.1556 21.298 35.9949 21.0038 35.7079C20.7751 35.4778 20.4741 35.3334 20.1515 35.2992C19.8288 35.2649 19.5043 35.3429 19.2324 35.5199C18.9561 35.7045 18.6987 35.9158 18.4638 36.1508C17.9863 36.6283 17.6077 37.1954 17.3498 37.8196C17.0919 38.4437 16.9598 39.1126 16.9609 39.7879C16.9609 39.9395 17.0211 40.0848 17.1283 40.192C17.2355 40.2992 17.3808 40.3594 17.5324 40.3594H18.9609V39.7879C18.9609 39.6364 19.0211 39.491 19.1283 39.3839C19.2355 39.2767 19.3808 39.2165 19.5324 39.2165C19.6839 39.2165 19.8293 39.2767 19.9364 39.3839C20.0436 39.491 20.1038 39.6364 20.1038 39.7879V40.3594H24.1038V39.7879C24.1038 39.6364 24.164 39.491 24.2711 39.3839C24.3783 39.2767 24.5237 39.2165 24.6752 39.2165C24.8268 39.2165 24.9721 39.2767 25.0793 39.3839C25.1864 39.491 25.2466 39.6364 25.2466 39.7879V40.3594H26.6752C26.8268 40.3594 26.9721 40.2992 27.0793 40.192C27.1864 40.0848 27.2466 39.9395 27.2466 39.7879C27.2476 39.1123 27.1153 38.4431 26.8571 37.8188C26.5989 37.1945 26.22 36.6272 25.7421 36.1497Z" fill="white"/>
<path d="M22.1033 28.3594C21.2289 28.3957 20.4043 28.7767 19.81 29.4192C19.2157 30.0617 18.9 30.9133 18.9319 31.7879C18.9 32.6626 19.2157 33.5142 19.81 34.1567C20.4043 34.7992 21.2289 35.1802 22.1033 35.2165C22.9778 35.1802 23.8023 34.7992 24.3966 34.1567C24.9909 33.5142 25.3066 32.6626 25.2747 31.7879C25.3066 30.9133 24.9909 30.0617 24.3966 29.4192C23.8023 28.7767 22.9778 28.3957 22.1033 28.3594ZM22.1033 34.0737C21.6551 34.0567 21.2247 33.8941 20.8772 33.6105C20.5297 33.327 20.2841 32.9379 20.1776 32.5022H20.9833C21.1485 32.5027 21.3117 32.4672 21.4617 32.3981C21.6117 32.329 21.7449 32.228 21.8519 32.1022L22.5719 31.2622L22.6119 31.5194C22.6516 31.7915 22.7876 32.0404 22.9952 32.2208C23.2028 32.4011 23.4683 32.501 23.7433 32.5022H24.029C23.9225 32.9379 23.6769 33.327 23.3294 33.6105C22.9819 33.8941 22.5515 34.0567 22.1033 34.0737Z" fill="white"/>
</svg>
