<svg width="57" height="56" viewBox="0 0 57 56" fill="none" xmlns="http://www.w3.org/2000/svg">
<circle cx="28.5781" cy="27.9922" r="28" fill="#BD0D27"/>
<path fill-rule="evenodd" clip-rule="evenodd" d="M29.5505 27.8176H30.8067C30.8336 27.8176 30.8554 27.7957 30.8554 27.7688V26.784C30.8554 26.274 31.2714 25.858 31.7814 25.858H34.5781C34.5851 25.8581 34.592 25.8567 34.5983 25.8538C34.6046 25.851 34.6102 25.8467 34.6147 25.8415L35.344 25.0119C35.3757 24.9759 35.4142 24.9465 35.4573 24.9254C35.5004 24.9042 35.5472 24.8918 35.595 24.8887C35.6429 24.8857 35.6909 24.8921 35.7363 24.9076C35.7817 24.9231 35.8236 24.9474 35.8597 24.9791C35.8957 25.0108 35.9251 25.0493 35.9462 25.0923C35.9674 25.1354 35.9798 25.1822 35.9829 25.2301C35.9859 25.278 35.9795 25.326 35.964 25.3714C35.9485 25.4168 35.9242 25.4587 35.8925 25.4947L32.965 28.8243C32.9607 28.8294 32.9553 28.8335 32.9493 28.8363C32.9432 28.8392 32.9366 28.8407 32.93 28.8408C32.9233 28.8411 32.9166 28.84 32.9104 28.8375C32.9042 28.8351 32.8986 28.8313 32.8939 28.8265L32.3156 28.2482C32.2466 28.1815 32.1543 28.1447 32.0584 28.1455C31.9625 28.1463 31.8707 28.1847 31.8029 28.2526C31.7351 28.3204 31.6966 28.4121 31.6958 28.508C31.695 28.6039 31.7319 28.6963 31.7985 28.7653L32.6891 29.6558C32.8402 29.8069 33.086 29.7992 33.2312 29.6281L33.2318 29.6274L35.4204 27.1382C35.4268 27.1307 35.4355 27.1254 35.4451 27.123C35.4548 27.1206 35.4649 27.1212 35.4741 27.1248C35.4935 27.1321 35.5057 27.1497 35.5057 27.1704V29.5822C35.5057 30.0923 35.0897 30.5082 34.5797 30.5082H31.7814C31.2713 30.5082 30.8554 30.0923 30.8554 29.5822V28.5975C30.8554 28.5845 30.8502 28.5722 30.8411 28.563C30.8319 28.5539 30.8196 28.5488 30.8066 28.5487H29.5504C29.5375 28.5488 29.5251 28.5539 29.516 28.563C29.5069 28.5722 29.5017 28.5846 29.5017 28.5975V35.2504C29.5017 35.2773 29.5236 35.2991 29.5504 35.2991H30.8066C30.8196 35.2991 30.8319 35.294 30.8411 35.2848C30.8502 35.2757 30.8553 35.2633 30.8554 35.2504V34.2656C30.8554 33.7556 31.2713 33.3397 31.7814 33.3397H34.5781C34.585 33.3398 34.5919 33.3384 34.5982 33.3355C34.6046 33.3326 34.6102 33.3284 34.6147 33.3231L35.344 32.4936C35.3757 32.4576 35.4142 32.4282 35.4573 32.407C35.5004 32.3859 35.5472 32.3734 35.595 32.3704C35.6429 32.3673 35.6909 32.3738 35.7363 32.3893C35.7817 32.4048 35.8236 32.4291 35.8597 32.4608C35.8957 32.4925 35.9251 32.5309 35.9462 32.574C35.9674 32.6171 35.9798 32.6639 35.9829 32.7118C35.9859 32.7596 35.9795 32.8076 35.964 32.853C35.9485 32.8984 35.9242 32.9403 35.8925 32.9764L32.965 36.306C32.9607 36.3111 32.9553 36.3152 32.9493 36.318C32.9432 36.3209 32.9366 36.3224 32.93 36.3225C32.9233 36.3228 32.9166 36.3217 32.9104 36.3193C32.9042 36.3168 32.8986 36.313 32.8939 36.3083L32.3156 35.7299C32.2466 35.6633 32.1543 35.6264 32.0584 35.6272C31.9625 35.628 31.8707 35.6665 31.8029 35.7343C31.7351 35.8021 31.6966 35.8938 31.6958 35.9897C31.695 36.0856 31.7319 36.178 31.7985 36.247L32.6891 37.1375C32.8402 37.2887 33.086 37.281 33.2312 37.1098L33.2318 37.1091L35.4204 34.6199C35.4268 34.6124 35.4355 34.6071 35.4451 34.6047C35.4548 34.6023 35.4649 34.6029 35.4741 34.6065C35.4935 34.6138 35.5057 34.6315 35.5057 34.6521V37.064C35.5057 37.5739 35.0897 37.9899 34.5797 37.9899H31.7814C31.2714 37.9899 30.8554 37.574 30.8554 37.064V36.0792C30.8554 36.0663 30.8502 36.0539 30.8411 36.0448C30.8319 36.0356 30.8196 36.0305 30.8066 36.0305H29.136C29.039 36.0305 28.946 35.9919 28.8775 35.9234C28.8089 35.8548 28.7704 35.7618 28.7704 35.6648V20.7014C28.7704 20.6045 28.8089 20.5115 28.8775 20.4429C28.946 20.3743 29.039 20.3358 29.136 20.3358H30.8066C30.8335 20.3358 30.8554 20.3139 30.8554 20.287V19.3023C30.8554 18.7922 31.2713 18.3763 31.7814 18.3763H34.5781C34.585 18.3764 34.5919 18.375 34.5982 18.3721C34.6046 18.3692 34.6102 18.365 34.6147 18.3597L35.344 17.5302C35.408 17.4575 35.4983 17.4132 35.595 17.407C35.6917 17.4008 35.7869 17.4333 35.8596 17.4973C35.9323 17.5614 35.9766 17.6517 35.9828 17.7483C35.989 17.845 35.9565 17.9402 35.8924 18.013L32.9649 21.3426C32.9606 21.3477 32.9552 21.3518 32.9492 21.3546C32.9432 21.3575 32.9366 21.359 32.9299 21.3591C32.9232 21.3594 32.9166 21.3583 32.9104 21.3559C32.9042 21.3534 32.8985 21.3496 32.8939 21.3449L32.3155 20.7665C32.2466 20.6999 32.1542 20.663 32.0583 20.6638C31.9624 20.6646 31.8707 20.7031 31.8028 20.7709C31.735 20.8387 31.6966 20.9304 31.6958 21.0263C31.6949 21.1222 31.7318 21.2146 31.7985 21.2836L32.689 22.1742C32.8402 22.3253 33.086 22.3176 33.2311 22.1464L33.2317 22.1458L35.4203 19.6566C35.4268 19.6491 35.4354 19.6437 35.4451 19.6413C35.4547 19.6389 35.4648 19.6396 35.4741 19.6432C35.4935 19.6505 35.5056 19.6681 35.5056 19.6888V22.1006C35.5056 22.6106 35.0897 23.0266 34.5797 23.0266H31.7813C31.2713 23.0266 30.8553 22.6107 30.8553 22.1006V21.1158C30.8553 21.1029 30.8502 21.0905 30.841 21.0814C30.8319 21.0722 30.8195 21.0671 30.8066 21.0671H29.5504C29.5375 21.0671 29.5251 21.0722 29.5159 21.0814C29.5068 21.0905 29.5017 21.1029 29.5016 21.1158V27.7687C29.5017 27.7817 29.5069 27.794 29.516 27.8032C29.5252 27.8123 29.5375 27.8175 29.5505 27.8176ZM24.0621 25.202V36.7126C24.0621 37.2826 23.3129 37.5864 22.8642 37.1766C22.7918 37.111 22.735 37.03 22.698 36.9395C22.6956 36.9338 22.6944 36.9275 22.6945 36.9213V30.9256C22.6945 30.8368 22.6592 30.7517 22.5964 30.689C22.5337 30.6262 22.4486 30.591 22.3598 30.591C22.2711 30.591 22.1859 30.6262 22.1232 30.689C22.0604 30.7517 22.0252 30.8368 22.0252 30.9256V36.9213C22.0252 36.9275 22.024 36.9338 22.0216 36.9395C21.9846 37.03 21.9278 37.111 21.8554 37.1766C21.4066 37.5865 20.6574 37.2827 20.6574 36.7127V25.0956C20.6574 24.8523 20.2872 24.7207 20.1067 24.9698L20.1055 24.9714L17.8524 27.83C17.6231 28.1209 17.1671 28.1743 16.8943 27.9904C16.7337 27.8822 16.6237 27.7522 16.5877 27.5506C16.5565 27.3751 16.6022 27.1985 16.7125 27.0584L19.8683 23.0547C20.2257 22.6013 20.7301 22.3837 21.3024 22.3837H23.4172C23.9896 22.3837 24.494 22.6013 24.8513 23.0547L28.0072 27.0586C28.3702 27.5191 27.9572 28.1823 27.3254 28.0883C27.1464 28.0617 26.9798 27.9729 26.8672 27.83L24.5961 24.9487C24.4342 24.7433 24.0639 24.8431 24.0636 25.0957L24.0635 25.2021L24.0621 25.202ZM21.5496 21.4231C22.2693 22.1429 23.5055 21.6307 23.5055 20.6129C23.5055 19.595 22.2692 19.0829 21.5496 19.8027C21.1021 20.2501 21.1021 20.9758 21.5496 21.4231ZM36.5785 20.1764C36.4816 20.1764 36.3886 20.1379 36.32 20.0693C36.2514 20.0007 36.2129 19.9077 36.2129 19.8107C36.2129 19.7138 36.2514 19.6208 36.32 19.5522C36.3886 19.4836 36.4816 19.4451 36.5785 19.4451H40.2125C40.3094 19.4451 40.4024 19.4836 40.471 19.5522C40.5396 19.6208 40.5781 19.7138 40.5781 19.8107C40.5781 19.9077 40.5396 20.0007 40.471 20.0693C40.4024 20.1379 40.3094 20.1764 40.2125 20.1764H36.5785ZM36.5785 35.1399C36.4816 35.1399 36.3886 35.1013 36.32 35.0328C36.2514 34.9642 36.2129 34.8712 36.2129 34.7742C36.2129 34.6772 36.2514 34.5842 36.32 34.5156C36.3886 34.4471 36.4816 34.4085 36.5785 34.4085H40.2125C40.3094 34.4085 40.4024 34.4471 40.471 34.5156C40.5396 34.5842 40.5781 34.6772 40.5781 34.7742C40.5781 34.8712 40.5396 34.9642 40.471 35.0328C40.4024 35.1013 40.3094 35.1399 40.2125 35.1399H36.5785ZM36.5785 36.9213C36.4816 36.9213 36.3886 36.8827 36.32 36.8142C36.2514 36.7456 36.2129 36.6526 36.2129 36.5556C36.2129 36.4586 36.2514 36.3656 36.32 36.297C36.3886 36.2285 36.4816 36.1899 36.5785 36.1899H39.0964C39.1934 36.1899 39.2864 36.2285 39.355 36.297C39.4235 36.3656 39.4621 36.4586 39.4621 36.5556C39.4621 36.6526 39.4235 36.7456 39.355 36.8142C39.2864 36.8827 39.1934 36.9213 39.0964 36.9213H36.5785ZM36.5785 27.6582C36.4816 27.6582 36.3886 27.6197 36.32 27.5511C36.2514 27.4825 36.2129 27.3895 36.2129 27.2925C36.2129 27.1955 36.2514 27.1025 36.32 27.034C36.3886 26.9654 36.4816 26.9269 36.5785 26.9269H40.2125C40.3094 26.9269 40.4024 26.9654 40.471 27.034C40.5396 27.1025 40.5781 27.1955 40.5781 27.2925C40.5781 27.3895 40.5396 27.4825 40.471 27.5511C40.4024 27.6197 40.3094 27.6582 40.2125 27.6582H36.5785ZM36.5785 29.4395C36.4816 29.4395 36.3886 29.401 36.32 29.3324C36.2514 29.2639 36.2129 29.1709 36.2129 29.0739C36.2129 28.9769 36.2514 28.8839 36.32 28.8153C36.3886 28.7467 36.4816 28.7082 36.5785 28.7082H39.0964C39.1934 28.7082 39.2864 28.7467 39.355 28.8153C39.4235 28.8839 39.4621 28.9769 39.4621 29.0739C39.4621 29.1709 39.4235 29.2639 39.355 29.3324C39.2864 29.401 39.1934 29.4395 39.0964 29.4395H36.5785ZM36.5785 21.9578C36.4816 21.9578 36.3886 21.9192 36.32 21.8507C36.2514 21.7821 36.2129 21.6891 36.2129 21.5921C36.2129 21.4951 36.2514 21.4021 36.32 21.3335C36.3886 21.2649 36.4816 21.2264 36.5785 21.2264H39.0964C39.1934 21.2264 39.2864 21.2649 39.355 21.3335C39.4235 21.4021 39.4621 21.4951 39.4621 21.5921C39.4621 21.6891 39.4235 21.7821 39.355 21.8507C39.2864 21.9192 39.1934 21.9578 39.0964 21.9578H36.5785Z" fill="white"/>
</svg>
