<svg width="57" height="57" viewBox="0 0 57 57" fill="none" xmlns="http://www.w3.org/2000/svg">
<circle cx="28.8125" cy="28.3594" r="28" fill="#C20D28"/>
<path d="M35.8927 32.3637C35.4894 32.2995 35.1167 32.1092 34.8281 31.8203L34.8488 39.1435C34.8507 39.816 35.3965 40.3598 36.0685 40.3598H36.0721C36.7458 40.3579 37.2903 39.8102 37.2884 39.1366L37.2684 32.0689C36.8769 32.3263 36.3918 32.4439 35.8927 32.3637Z" fill="white"/>
<path d="M21.7278 20.5728C22.8913 20.5728 23.8345 19.6296 23.8345 18.4661C23.8345 17.3026 22.8913 16.3594 21.7278 16.3594C20.5643 16.3594 19.6211 17.3026 19.6211 18.4661C19.6211 19.6296 20.5643 20.5728 21.7278 20.5728Z" fill="white"/>
<path d="M26.9786 25.0481L23.7867 24.6737L21.6992 22.5995L23.6792 23.6376L24.4092 23.7232V22.8216C24.4092 22.0356 23.7721 21.3984 22.9861 21.3984H20.4481C19.6622 21.3984 19.025 22.0356 19.025 22.8216L19 39.1379C18.9981 39.8116 19.5427 40.3592 20.2163 40.3611H20.2199C20.8919 40.3611 21.4377 39.8173 21.4396 39.1448L21.4651 30.1267L21.465 30.1233H21.9911L21.9917 39.1415C21.9918 39.8152 22.538 40.3612 23.2116 40.3612C23.8853 40.3611 24.4314 39.815 24.4313 39.1413C24.4305 28.2915 24.4092 27.8171 24.4092 27.8171L23.0825 27.6615C22.6732 27.6134 22.1779 27.6228 21.8864 27.0845L20.2663 24.0418L22.6029 26.3634C22.7643 26.5238 22.9749 26.6254 23.2009 26.6519L26.7417 27.0673C27.3013 27.1325 27.8045 26.7321 27.8697 26.1761C27.9351 25.6185 27.5361 25.1135 26.9786 25.0481Z" fill="white"/>
<path d="M34.5637 20.5728C35.7272 20.5728 36.6704 19.6296 36.6704 18.4661C36.6704 17.3026 35.7272 16.3594 34.5637 16.3594C33.4002 16.3594 32.457 17.3026 32.457 18.4661C32.457 19.6296 33.4002 20.5728 34.5637 20.5728Z" fill="white"/>
<path d="M37.7479 26.4442L36.5443 23.0457L37.264 24.1154V22.8216C37.264 22.0356 36.6268 21.3984 35.8409 21.3984H33.303C32.517 21.3984 31.8799 22.0356 31.8799 22.8216V23.1832L28.6217 25.0457C28.8393 25.4235 28.9291 25.8616 28.8777 26.2946C28.8103 26.8686 28.5097 27.3581 28.082 27.6806C28.1945 27.6382 27.9339 27.7805 31.8799 25.5249C31.8799 25.5249 31.8584 29.9362 31.8578 39.1413C31.8577 39.815 32.4038 40.3611 33.0775 40.3612H33.0776C33.7512 40.3612 34.2973 39.8151 34.2974 39.1415L34.298 30.841C34.2497 30.6093 34.2443 30.3707 34.282 30.1371L34.2842 30.1233L34.87 26.4753L34.6474 23.943L34.628 23.7244L35.745 26.8785L35.198 30.2842C35.109 30.8385 35.4862 31.36 36.0405 31.449C36.5959 31.5381 37.1164 31.1599 37.2053 30.6066L37.7934 26.9448C37.8203 26.7768 37.8046 26.6046 37.7479 26.4442Z" fill="white"/>
</svg>
